<?xml version="1.0" standalone="no"?>
<!DOCTYPE svg PUBLIC "-//W3C//DTD SVG 20010904//EN"
 "http://www.w3.org/TR/2001/REC-SVG-20010904/DTD/svg10.dtd">
<svg version="1.0" xmlns="http://www.w3.org/2000/svg"
 width="608.000000pt" height="608.000000pt" viewBox="0 0 608.000000 608.000000"
 preserveAspectRatio="xMidYMid meet">
<metadata>
Created by potrace 1.11, written by Peter Selinger 2001-2013
</metadata>
<g transform="translate(0.000000,608.000000) scale(0.100000,-0.100000)"
fill="#000000" stroke="none">
<path d="M3135 5663 c-11 -2 -63 -18 -115 -33 -93 -29 -97 -29 -155 -15 -33 9
-109 18 -170 21 -203 12 -385 -43 -585 -176 -188 -125 -383 -379 -431 -561
-13 -50 -31 -85 -67 -132 -61 -80 -203 -397 -231 -517 -33 -139 -39 -236 -39
-636 0 -210 -3 -405 -7 -435 -6 -51 3 -121 20 -163 8 -18 7 -18 -21 0 l-29 18
21 -25 c37 -42 64 -106 64 -153 0 -80 -25 -67 -81 43 -21 40 -33 79 -33 103 0
44 -6 47 -39 16 -53 -50 -62 -83 -61 -218 1 -113 5 -140 43 -285 68 -260 118
-383 177 -435 32 -28 41 -31 91 -28 l54 3 23 -70 c46 -145 143 -327 249 -470
159 -213 455 -441 764 -590 324 -156 542 -145 925 45 391 194 655 425 839 732
53 90 159 300 159 316 0 6 7 18 17 27 13 13 27 15 73 10 95 -11 139 26 205
168 43 93 121 351 136 447 13 86 7 256 -11 291 -17 34 -61 79 -76 79 -8 0 -11
-9 -9 -21 7 -36 -100 -218 -128 -219 -16 0 -17 6 -11 53 6 52 38 121 78 166
18 21 14 20 -23 -7 -52 -37 -66 -34 -43 11 15 28 17 83 19 472 1 242 -3 475
-8 519 -24 201 -62 331 -154 521 -42 87 -44 94 -47 200 l-3 109 74 31 c88 36
100 50 81 95 -22 52 -224 249 -320 311 -87 57 -219 115 -325 143 -46 12 -420
96 -428 96 -1 0 -2 17 -2 37 0 47 -11 53 -166 87 -109 24 -236 33 -294 19z
m-470 -1113 c227 -17 298 -28 427 -69 201 -62 323 -117 451 -202 66 -45 125
-77 135 -75 43 10 62 19 67 35 3 9 6 63 6 119 2 91 4 102 22 108 14 4 32 -7
70 -42 28 -27 57 -57 65 -67 8 -10 45 -49 82 -87 49 -49 79 -70 107 -77 l38
-9 3 -129 c2 -72 -2 -164 -8 -205 -6 -41 -11 -106 -11 -143 -1 -75 0 -74 -74
-41 -112 49 -356 66 -476 32 -180 -51 -209 -72 -209 -150 l0 -53 -52 -30 c-28
-16 -59 -34 -69 -40 -24 -13 -30 -54 -13 -88 12 -22 13 -39 4 -84 -5 -31 -10
-78 -10 -105 0 -26 -4 -48 -9 -48 -5 0 -7 -10 -3 -22 3 -13 1 -19 -5 -15 -6 4
-9 -4 -7 -19 1 -14 -1 -24 -4 -22 -4 2 -36 19 -72 38 -61 32 -71 34 -160 34
-79 0 -102 -3 -138 -22 -23 -13 -47 -20 -52 -17 -4 3 -11 -3 -13 -12 -3 -13
-5 -12 -6 5 -1 15 -5 21 -13 16 -7 -4 -8 -3 -4 4 4 6 14 8 22 5 14 -5 15 -3 5
15 -6 11 -11 35 -11 52 0 17 -4 39 -9 48 -4 9 -11 40 -15 68 -5 40 -3 54 11
70 35 37 13 72 -88 138 -21 13 -46 27 -56 30 -15 5 -18 13 -15 36 8 53 -15 87
-75 115 -133 63 -327 83 -478 49 -38 -9 -78 -17 -87 -17 -10 -1 -18 -6 -19
-12 -1 -5 -7 31 -14 80 -7 50 -17 119 -23 155 -9 66 -6 108 22 298 16 103 33
167 62 231 14 28 14 35 3 43 -10 6 -7 7 9 3 13 -4 22 -2 22 4 0 6 -6 11 -12
11 -26 1 94 52 140 60 71 12 378 12 537 0z m1320 -1029 c192 -39 344 -148 426
-306 55 -105 72 -174 72 -295 1 -152 -41 -272 -134 -390 -23 -29 -35 -49 -28
-45 9 5 8 1 -3 -11 -10 -12 -14 -30 -12 -49 7 -42 7 -42 -5 -115 -17 -98 -58
-190 -140 -314 -25 -38 -50 -76 -56 -85 -23 -36 -39 -42 -106 -37 -58 4 -68 2
-85 -17 l-19 -22 -3 25 c-9 76 -98 166 -198 200 -55 19 -114 19 -83 -1 10 -6
4 -16 -26 -43 -22 -19 -47 -36 -55 -36 -9 0 -5 -6 10 -15 22 -13 3 -14 -165
-9 -151 5 -209 3 -280 -10 -118 -21 -163 -20 -308 5 -119 21 -224 21 -349 2
-38 -6 -57 12 -21 19 16 3 15 6 -4 25 -13 13 -25 34 -29 48 -3 14 -14 25 -23
25 -14 1 -13 3 3 15 30 23 1 19 -92 -10 -119 -38 -231 -140 -216 -198 8 -33
-11 -43 -30 -16 -13 19 -22 21 -61 17 -67 -8 -76 -3 -117 60 -118 183 -152
282 -163 471 0 13 -12 33 -25 45 -46 40 -107 121 -138 181 -37 74 -51 124 -57
195 -3 44 -2 48 4 22 10 -40 12 -41 42 -47 13 -3 25 -9 27 -15 7 -19 39 -10
52 15 7 14 16 25 20 25 4 0 28 20 53 45 40 39 50 43 70 36 21 -8 30 -4 57 24
18 18 60 48 93 66 60 32 60 32 53 8 -15 -56 -18 -110 -6 -157 14 -59 8 -57
180 -72 175 -15 194 -14 228 15 28 23 32 24 46 9 9 -8 16 -20 16 -25 0 -5 5
-9 10 -9 19 0 50 83 50 133 0 46 1 47 21 36 12 -6 46 -35 75 -63 70 -68 79
-59 72 65 -5 75 -9 94 -27 110 -12 11 -26 17 -33 13 -7 -5 -9 -2 -6 7 4 10 -4
14 -31 15 -45 1 -94 8 -107 16 -20 13 -175 37 -245 39 -93 2 -162 -9 -214 -32
-59 -27 -65 -25 -65 25 0 24 -4 46 -9 48 -5 2 -11 31 -14 65 -7 70 8 120 42
141 12 7 21 19 21 27 0 8 5 15 12 15 6 0 9 2 6 6 -3 3 -50 -10 -104 -27 -55
-18 -103 -32 -108 -30 -5 1 -3 -6 5 -15 13 -16 12 -16 -7 -6 -17 9 -24 9 -33
-2 -7 -8 -20 -13 -29 -11 -15 2 -60 -23 -88 -50 -16 -15 -94 -147 -94 -159 0
-5 -3 -7 -6 -4 -12 13 68 148 126 211 51 56 79 76 154 112 94 46 216 75 316
75 86 0 255 -65 320 -123 13 -12 32 -26 41 -32 19 -11 119 -133 119 -145 0 -4
10 -20 22 -35 12 -16 23 -35 24 -44 1 -9 9 -43 18 -75 17 -61 23 -229 10 -280
-4 -17 -2 -26 5 -26 6 0 16 -11 21 -25 9 -25 47 -35 64 -17 4 4 11 7 15 7 5 0
37 29 72 64 35 36 66 64 69 64 3 0 16 4 30 9 26 10 130 3 140 -10 3 -4 25 -23
50 -43 25 -20 58 -49 73 -63 18 -17 43 -28 66 -30 36 -3 37 -2 35 28 -16 180
-16 225 1 306 35 172 159 332 319 409 91 44 118 55 129 53 4 -1 7 2 7 8 0 12
173 6 245 -9z m-2505 -451 c-6 -23 -13 -40 -15 -38 -2 2 1 23 7 46 6 24 13 41
15 38 2 -2 -1 -23 -7 -46z m666 -35 c14 -58 -54 -98 -98 -58 -18 16 -25 63
-11 76 3 4 28 7 54 7 44 0 49 -3 55 -25z m947 -37 c65 -30 95 -53 85 -64 -3
-3 -21 3 -39 14 -82 45 -238 46 -311 2 -42 -25 -57 -25 -55 0 1 12 20 29 52
47 93 50 157 51 268 1z m-1626 -25 c-3 -10 -5 -2 -5 17 0 19 2 27 5 18 2 -10
2 -26 0 -35z m1593 -24 c0 -5 -36 -9 -81 -9 -53 0 -78 3 -74 11 8 12 155 10
155 -2z m-15 -39 c13 -6 -6 -9 -60 -9 -55 -1 -75 2 -65 9 18 12 98 12 125 0z
m1840 -230 c-3 -5 -2 -10 4 -10 5 0 12 6 15 13 3 6 4 3 1 -8 -2 -11 -12 -57
-20 -103 -28 -146 -90 -312 -117 -312 -4 0 -8 -4 -8 -10 0 -21 -92 -94 -110
-88 -6 2 20 62 56 133 37 72 80 165 95 208 15 43 30 81 33 84 3 4 6 13 6 22 0
17 36 81 45 81 4 0 3 -4 0 -10z m-3612 -127 c5 -11 6 -27 2 -35 -5 -7 -4 -10
0 -5 5 4 21 -28 37 -70 16 -43 37 -97 48 -120 22 -48 25 -69 10 -78 -27 -17
-73 65 -106 190 -1 6 -9 35 -18 66 -8 31 -14 75 -13 99 l1 42 15 -34 c7 -18
18 -43 24 -55z m2455 -656 c6 3 12 -1 12 -8 0 -7 3 -9 6 -6 8 7 44 -36 44 -52
0 -6 4 -11 9 -11 5 0 15 -15 22 -34 9 -24 17 -32 27 -28 13 4 14 -1 8 -34 -4
-21 -9 -46 -10 -54 -8 -46 -95 -177 -109 -164 -9 9 -55 -25 -118 -89 -36 -37
-71 -67 -78 -67 -17 0 -26 30 -15 49 11 18 3 108 -9 102 -4 -2 -21 -1 -38 3
l-31 6 52 57 c51 56 120 151 120 165 0 4 14 29 30 55 20 31 30 60 30 85 0 34
2 38 18 30 9 -5 23 -7 30 -5z m-1478 -27 c0 -40 72 -177 134 -257 31 -39 56
-74 56 -77 0 -2 -16 -2 -35 1 l-35 6 0 -56 c0 -82 -6 -91 -40 -67 -15 11 -45
42 -66 70 -22 28 -42 46 -47 41 -10 -10 -64 38 -94 84 -25 38 -56 137 -51 167
2 16 9 22 23 21 13 -2 29 9 45 33 40 56 48 63 80 62 26 -1 30 -5 30 -28z
m1175 -40 c44 -14 55 -25 55 -56 0 -39 -30 -52 -160 -70 -222 -30 -598 -22
-782 17 -40 9 -48 14 -53 40 -8 34 6 56 46 73 40 17 842 13 894 -4z m-731
-209 c201 -20 598 -10 728 19 53 11 40 -2 -38 -39 -193 -92 -452 -114 -676
-57 -87 22 -194 64 -225 89 -25 19 -2 25 50 12 28 -8 101 -18 161 -24z"/>
<path d="M1794 3455 c-18 -13 -18 -14 4 -8 12 3 25 9 28 14 8 14 -10 11 -32
-6z"/>
<path d="M4136 3330 c4 -17 1 -36 -6 -45 -6 -8 -9 -18 -6 -23 3 -5 -3 -47 -12
-95 -14 -69 -21 -84 -32 -77 -8 5 -17 7 -21 4 -4 -2 -53 8 -110 22 -89 23
-115 26 -208 21 -72 -3 -138 -14 -206 -33 -98 -27 -124 -32 -195 -33 -25 -1
-31 -4 -21 -10 8 -5 21 -7 30 -4 11 4 9 0 -4 -10 -11 -9 -24 -16 -30 -17 -5 0
-3 5 5 11 13 9 13 10 0 6 -18 -4 -27 -42 -29 -119 -1 -53 2 -61 31 -88 29 -28
33 -29 39 -13 4 10 24 36 45 58 l38 40 9 -35 c22 -89 31 -104 67 -112 19 -4
103 -5 185 -2 130 6 153 9 172 26 15 14 28 18 43 13 18 -6 20 -9 9 -16 -10 -6
-7 -9 12 -9 34 0 47 16 58 76 9 45 5 87 -14 157 l-7 28 52 -21 c53 -21 126
-66 167 -103 18 -16 28 -18 45 -11 30 13 68 6 68 -11 0 -16 67 -70 97 -77 13
-4 24 0 27 8 3 8 12 14 21 14 16 0 20 21 16 110 -3 70 -25 148 -63 225 -30 62
-73 115 -93 115 -6 0 -16 5 -23 12 -6 6 -19 13 -29 14 -38 6 -64 15 -59 22 2
4 -13 8 -35 10 -38 2 -39 2 -33 -28z m-456 -310 c0 -24 -34 -60 -56 -60 -23 0
-54 19 -54 33 0 13 63 44 93 46 11 1 17 -6 17 -19z"/>
<path d="M4300 3320 c0 -5 5 -10 11 -10 5 0 7 5 4 10 -3 6 -8 10 -11 10 -2 0
-4 -4 -4 -10z"/>
<path d="M2580 3095 c0 -8 4 -15 10 -15 5 0 7 7 4 15 -4 8 -8 15 -10 15 -2 0
-4 -7 -4 -15z"/>
<path d="M2715 2539 c2 -3 -14 -27 -36 -54 -96 -116 -146 -241 -120 -302 7
-16 29 -39 49 -51 l37 -22 -30 -1 c-17 0 -23 -3 -15 -6 8 -3 31 -19 51 -34 20
-16 43 -29 51 -29 8 0 18 -4 23 -9 6 -5 60 -19 122 -31 99 -20 120 -22 185
-12 40 6 89 14 108 17 95 14 132 29 184 72 28 23 28 24 7 30 -27 7 -27 14 4
43 52 49 42 140 -29 250 -44 67 -97 117 -132 124 -11 2 -23 5 -29 7 -16 5 -76
-12 -73 -21 2 -4 38 -35 80 -69 89 -71 101 -99 70 -159 -31 -61 -85 -77 -262
-77 -127 0 -151 3 -191 21 -51 24 -89 69 -89 107 0 28 66 94 147 146 46 29 51
35 38 47 -14 14 -158 27 -150 13z"/>
</g>
</svg>
